<svg width="96" height="97" viewBox="0 0 96 97" fill="none" xmlns="http://www.w3.org/2000/svg">
<path d="M66.5855 44.733L66.751 44.411L66.6719 44.0576C66.3015 42.4027 65.646 38.9582 65.7039 35.6575C65.7328 34.0057 65.9402 32.4514 66.4118 31.1949C66.8797 29.9481 67.5772 29.0673 68.556 28.6038C69.857 27.9888 71.8421 28.0258 74.147 28.6185C76.4086 29.2001 78.7884 30.2683 80.7399 31.4637C81.8498 32.1467 83.3054 33.163 84.4837 34.3936C85.6786 35.6415 86.4667 36.982 86.5044 38.3202L86.5044 38.321C86.5356 39.3947 86.0964 40.4744 85.2603 41.5554C84.4229 42.6381 83.2346 43.658 81.9015 44.5793C79.2359 46.4215 76.1579 47.7566 74.6543 48.3549L74.3245 48.4861L74.1512 48.7959L64.3272 66.3639L64.0582 66.845L64.3213 67.3294C66.3697 71.0996 66.173 75.8461 65.9133 81.1538C65.8174 82.9914 65.72 84.9352 65.72 86.9C65.72 87.2277 65.4477 87.5 65.12 87.5H10.464C10.1363 87.5 9.86402 87.2277 9.86402 86.9C9.86402 84.9351 9.76662 82.9913 9.67074 81.1535C9.31237 73.8229 9.06445 67.5516 14.6315 63.5521L15.048 63.2529V62.74V32.244C15.048 19.7074 25.2412 9.5 37.776 9.5C50.3115 9.5 60.5207 19.7083 60.536 32.2452V52.372L62.4255 52.829L66.5855 44.733ZM57.9067 61.8817L59.304 62.4867V60.964V32.244C59.304 20.3647 49.6573 10.7 37.776 10.7C25.9112 10.7 16.248 20.3642 16.248 32.244V60.964V62.4867L17.6454 61.8817C19.1362 61.2361 20.8482 60.6646 22.91 60.2306L22.9161 60.2293C26.7274 59.4023 29.5622 56.2735 30.0637 52.4046L30.1289 51.9017L29.7617 51.5519C26.273 48.2286 23.928 42.7751 23.928 36.548V36.4132C23.9486 36.1012 24.2002 35.8567 24.4535 35.8308L24.4573 35.8304C32.73 34.9543 39.8536 29.2194 43.6039 20.6614L43.604 20.6614L43.6072 20.6539C43.6743 20.4974 43.8262 20.3627 44.0099 20.312C44.1661 20.2689 44.349 20.2951 44.5139 20.4114C48.8267 23.6402 51.608 29.7861 51.608 36.548C51.608 42.777 49.2778 48.2298 45.7903 51.5519L45.4226 51.9022L45.4885 52.4057C45.9895 56.2352 48.819 59.4191 52.6404 60.2302L52.642 60.2306C54.7039 60.6646 56.4158 61.2361 57.9067 61.8817ZM48.5895 72.5811L48.8562 71.8364L48.1929 71.4055L44.7269 69.1534C44.5554 69.0372 44.4455 68.8361 44.4396 68.6461C44.4344 68.464 44.5242 68.2773 44.7007 68.1518C44.7016 68.1511 44.7026 68.1505 44.7035 68.1498L49.4647 64.8586L50.0356 64.4639L49.8655 63.791L49.1295 60.879L48.7961 59.5597L47.6366 60.2719C44.645 62.1094 41.2907 63.02 37.92 63.02C34.4754 63.02 31.0138 62.0488 27.9761 60.1198L26.812 59.3807L26.4711 60.7167L25.6871 63.7887L25.515 64.4629L26.0874 64.8586L30.8485 68.1498C30.8494 68.1504 30.8502 68.151 30.851 68.1516C31.0018 68.259 31.1069 68.4526 31.1118 68.6608C31.1009 68.8629 30.9942 69.0446 30.8352 69.1468L30.8312 69.1495L27.3592 71.4055L26.6959 71.8364L26.9626 72.5811C27.8503 75.0602 30.5877 81.1247 37.2002 85.7816L37.776 86.1871L38.3518 85.7816C44.9643 81.1247 47.7017 75.0602 48.5895 72.5811ZM25.9913 36.8263L25.1139 36.9765L25.1614 37.8655C25.3949 42.2268 26.8258 46.1789 29.0455 49.0638C31.2649 51.9485 34.3255 53.82 37.776 53.82C41.3984 53.82 44.5842 51.7639 46.8253 48.6319C49.0678 45.498 50.424 41.2211 50.424 36.548C50.424 31.1573 48.5808 26.0737 45.4063 22.7963L44.4398 21.7984L43.8003 23.0317C39.8932 30.5666 33.4037 35.5578 25.9913 36.8263ZM44.6557 54.1229L44.3 52.9085L43.2007 53.5353C41.5143 54.4969 39.6836 55.02 37.776 55.02C35.869 55.02 34.0533 54.4971 32.3808 53.5499L31.2786 52.9256L30.9272 54.1427C30.5175 55.562 29.8314 56.8451 28.9143 57.9368L28.1513 58.8451L29.1756 59.4435C34.524 62.5676 41.0952 62.601 46.4757 59.5628L47.5348 58.9647L46.7433 58.0412C45.7873 56.926 45.0834 55.5829 44.6557 54.1229ZM23.1799 61.4074L23.1799 61.4074L23.1687 61.4097C16.8587 62.7472 13.4988 65.1206 11.917 68.6622C11.147 70.3861 10.8356 72.3102 10.7379 74.3714C10.6409 76.4164 10.7526 78.6656 10.8713 81.0539L10.8731 81.0905C10.8731 81.091 10.8731 81.0915 10.8732 81.092C10.9372 82.4677 11.0006 83.88 11.0323 85.3377L11.0535 86.316H12.032H33.088H35.7021L33.7554 84.5713C27.1835 78.6814 25.4928 71.9434 25.4368 71.7084L25.4355 71.703C25.3765 71.4609 25.4762 71.2076 25.6904 71.0707L25.6955 71.0674L28.1915 69.4514L29.4435 68.6408L28.2181 67.7904L24.5127 65.219C24.5118 65.2184 24.5109 65.2178 24.51 65.2171C24.3035 65.0696 24.2078 64.8038 24.2657 64.5685C24.2658 64.5679 24.266 64.5672 24.2662 64.5665L24.7928 62.5078L25.1963 60.9306L23.6071 61.2838C23.4904 61.3097 23.378 61.3465 23.3154 61.3669C23.3089 61.3691 23.3029 61.371 23.2975 61.3728C23.2227 61.3971 23.1966 61.4041 23.1799 61.4074ZM63.6511 68.6622C62.0732 65.1295 58.7262 62.7592 52.447 61.4199C52.416 61.4094 52.3822 61.3964 52.3077 61.3694C52.2226 61.3387 52.0946 61.2943 51.9401 61.2634L50.3812 60.9516L50.7752 62.4918L51.3015 64.5492C51.3614 64.8021 51.2647 65.0538 51.0577 65.2014C51.0569 65.2019 51.0561 65.2025 51.0553 65.203L47.3499 67.7745L46.1245 68.6248L47.3765 69.4354L49.8725 71.0514L49.8776 71.0547C50.0918 71.1916 50.1916 71.4449 50.1325 71.687L50.1306 71.6947L50.1289 71.7024C50.0744 71.942 48.3858 78.6797 41.8136 84.5544L39.8608 86.3H42.48H63.52H64.4983L64.5198 85.322C64.5445 84.1954 64.5983 83.0912 64.6514 81.9988C64.6661 81.6956 64.6809 81.3933 64.6949 81.0916C64.6949 81.0912 64.6949 81.0909 64.6949 81.0905L64.6968 81.0538C64.8154 78.6655 64.9271 76.4164 64.8301 74.3714C64.7324 72.3102 64.4211 70.3861 63.6511 68.6622ZM62.3649 64.7591L63.3005 65.6947L63.9452 64.5393L72.5532 49.1153L73.0476 48.2295L72.1548 47.7479L68.5068 45.7799L67.6093 45.2957L67.1428 46.2025L60.6148 58.8905L60.504 59.1058V59.348V62.724V63.2435L60.9291 63.5422C61.4658 63.9193 61.934 64.3282 62.3649 64.7591ZM73.5294 47.1104L73.9424 47.3306L74.376 47.1546C76.6374 46.237 79.2989 44.8754 81.4054 43.4013C82.4562 42.666 83.4056 41.8772 84.0989 41.0743C84.768 40.2994 85.3292 39.361 85.3037 38.3468L85.3036 38.3422C85.2768 37.4444 84.7018 36.4556 83.8874 35.5339C83.034 34.568 81.78 33.5196 80.1077 32.4961C78.127 31.273 75.9558 30.3376 74.0309 29.8132C73.0683 29.5509 72.1441 29.3851 71.3207 29.3454C70.5168 29.3067 69.7142 29.383 69.0606 29.6919L69.0599 29.6923C68.1266 30.1344 67.6392 31.1133 67.3668 32.0494C67.0811 33.0315 66.953 34.2373 66.9282 35.5105C66.8784 38.0662 67.242 41.101 67.7906 43.6393L67.8879 44.0894L68.2932 44.3081L69.5092 44.9641L70.3905 45.4395L70.8647 44.5577L72.9127 40.7497L72.9154 40.7447C73.0692 40.4548 73.4209 40.3429 73.7233 40.5033C74.0126 40.6569 74.1247 41.0074 73.9656 41.3094C73.9653 41.3101 73.965 41.3107 73.9647 41.3113L71.9193 45.1143L71.444 45.9981L72.3294 46.4704L73.5294 47.1104Z" fill="white" stroke="#BA7894" stroke-width="2"/>
</svg>
