<svg width="246" height="51" viewBox="0 0 246 51" fill="none" xmlns="http://www.w3.org/2000/svg">
<g clip-path="url(#clip0_116_276)">
<path fill-rule="evenodd" clip-rule="evenodd" d="M63.1027 19.616C61.1139 20.3438 60.1186 22.3365 60.7042 24.4182C61.1028 25.8352 61.8229 26.414 64.0719 27.1252C67.2914 28.1433 67.8604 28.5477 67.8604 29.8182C67.8604 31.086 66.9283 31.8382 65.3582 31.837C64.1789 31.8362 63.3926 31.3687 63.0832 30.4843L62.8557 29.8343H61.6356H60.4155L60.5241 30.3952C60.9408 32.5493 62.8162 33.853 65.4696 33.8331C68.5936 33.8098 70.7067 31.3681 69.9885 28.6112C69.5917 27.0884 68.6017 26.3175 66.1552 25.6263C64.2171 25.0786 63.3131 24.6026 62.9917 23.9604C62.6143 23.2058 62.8067 22.3214 63.4747 21.7404C63.9124 21.3597 64.1944 21.2743 65.0106 21.2749C66.2058 21.2756 66.9922 21.7016 67.3231 22.5275C67.5468 23.0854 67.572 23.0954 68.7628 23.0954C69.4296 23.0954 69.9744 23.034 69.9739 22.9588C69.9661 21.8677 68.9593 20.4001 67.789 19.7737C66.7434 19.214 64.4153 19.1357 63.1027 19.616ZM131.091 19.6202C130.542 19.8016 129.818 20.1256 129.482 20.3402C128.557 20.9312 127.442 22.274 126.919 23.4278C126.496 24.3596 126.45 24.6681 126.45 26.5603C126.45 28.5602 126.477 28.7156 127.023 29.8608C127.717 31.3181 128.812 32.4065 130.313 33.1325C133.598 34.7214 137.901 33.4217 139.398 30.3881L139.761 29.6521L138.392 29.6527C137.078 29.6532 137.009 29.6743 136.681 30.181C135.913 31.3651 134.265 32.0083 132.603 31.7728C129.899 31.3896 128.128 28.5694 128.675 25.5145C129.144 22.8887 130.646 21.4624 133.104 21.3078C134.129 21.2432 134.43 21.3014 135.272 21.7273C135.873 22.031 136.399 22.4596 136.636 22.8384C137.021 23.4518 137.03 23.4551 138.393 23.4575L139.763 23.4597L139.47 22.8678C138.015 19.9284 134.399 18.5267 131.091 19.6202ZM75.2612 26.5559V33.659H79.0497H82.8382V32.7483V31.8377H80.1951H77.5519V29.6521V27.4666H79.9308H82.3096V26.4648V25.4631H79.9308H77.5519V23.3686V21.2741H80.1951H82.8382V20.3635V19.4528H79.0497H75.2612V26.5559ZM88.1245 26.5388V33.659H89.2699H90.4152V30.836V28.0129H91.2841H92.153L93.707 30.8341L95.261 33.6555L96.6205 33.6572L97.9799 33.659L96.4044 30.9534C95.538 29.4654 94.7819 28.1209 94.7243 27.9656C94.6476 27.7591 94.7713 27.6489 95.1856 27.5547C95.497 27.484 96.0929 27.1012 96.51 26.7038C98.5158 24.7929 98.105 21.4561 95.6961 20.0903C94.7368 19.5464 94.7171 19.5435 91.4285 19.4812L88.1245 19.4188V26.5388ZM102.46 20.5911C102.686 21.2173 103.848 24.4135 105.04 27.6942L107.209 33.659L108.548 33.6557L109.887 33.6524L112.455 26.5526L115.024 19.4528H113.845H112.666L111.516 22.7767C110.883 24.6049 109.98 27.2271 109.509 28.604C109.038 29.9809 108.605 31.1079 108.546 31.1083C108.488 31.1088 107.541 28.4865 106.442 25.281L104.444 19.4528H103.246H102.048L102.46 20.5911ZM119.314 26.5559V33.659H120.459H121.604V26.5559V19.4528H120.459H119.314V26.5559ZM144.864 26.5559V33.659H148.653H152.441V32.7483V31.8377H149.798H147.155V29.6521V27.4666H149.534H151.913V26.4648V25.4631H149.534H147.155V23.3686V21.2741H149.798H152.441V20.3635V19.4528H148.653H144.864V26.5559ZM157.727 26.5559V33.659H158.87H160.012L160.059 28.903L160.106 24.147L162.133 28.9059L164.159 33.6648L165.004 33.6164L165.85 33.5679L167.83 28.9777C168.92 26.453 169.867 24.3288 169.936 24.2574C170.006 24.186 170.062 26.2721 170.062 28.8932V33.659H171.207H172.353V26.5479V19.4368L171.081 19.4903L169.808 19.5439L167.437 25.0579C166.133 28.0905 165.013 30.5083 164.948 30.4307C164.883 30.3531 163.894 28.1177 162.75 25.4631C161.607 22.8086 160.55 20.3704 160.4 20.0447C160.133 19.4623 160.11 19.4528 158.928 19.4528H157.727V26.5559ZM181.673 19.9537C181.57 20.2292 180.507 23.2821 179.311 26.738C178.115 30.194 177.081 33.1689 177.013 33.3492C176.901 33.6477 176.995 33.6719 178.08 33.6224L179.27 33.5679L179.754 32.2019L180.238 30.836L183.146 30.7861L186.055 30.7363L186.547 32.1976L187.039 33.659H188.253C188.92 33.659 189.43 33.5976 189.385 33.5224C189.319 33.4113 185.73 23.1348 184.741 20.2269L184.478 19.4528H183.169C181.903 19.4528 181.853 19.4696 181.673 19.9537ZM194.027 26.5388V33.659H195.172H196.317V30.836V28.0129H197.175H198.032L199.598 30.8341L201.163 33.6553L202.513 33.6572L203.864 33.659L202.206 30.7904C201.295 29.2126 200.548 27.8669 200.548 27.7997C200.547 27.7326 200.797 27.6206 201.104 27.5511C201.423 27.4786 202.017 27.0564 202.495 26.5621C203.185 25.8496 203.366 25.5178 203.54 24.6517C203.932 22.7002 203.212 21.0193 201.585 20.0877C200.639 19.5466 200.618 19.5435 197.331 19.4812L194.027 19.4188V26.5388ZM209.004 26.5559V33.659H210.146H211.287L211.335 30.5435L211.383 27.4281L213.99 30.5435L216.597 33.659H217.999C218.77 33.659 219.401 33.6218 219.401 33.5763C219.401 33.5308 218.092 31.9686 216.493 30.1047C214.894 28.2408 213.586 26.6574 213.586 26.5856C213.586 26.4856 217.21 22.0735 219.182 19.7715C219.44 19.471 219.375 19.4528 218.04 19.4528H216.625L214.004 22.6403L211.383 25.8276L211.335 22.6403L211.287 19.4528H210.146H209.004V26.5559ZM223.982 26.5559V33.659H227.859H231.736V32.7483V31.8377H229.004H226.273V29.6521V27.4666H228.652H231.031V26.4648V25.4631H228.652H226.273V23.3686V21.2741H229.004H231.736V20.3635V19.4528H227.859H223.982V26.5559ZM236.141 20.3635V21.2741H237.991H239.841V27.4666V33.659H240.987H242.132V27.4666V21.2741H243.982H245.832V20.3635V19.4528H240.987H236.141V20.3635ZM94.2919 21.5932C95.1347 22.0283 95.6006 23.0344 95.4476 24.0888C95.2256 25.6192 94.2318 26.1887 91.7809 26.1905L90.4152 26.1916V23.7329V21.2741L92.0452 21.2745C93.2439 21.2747 93.8383 21.359 94.2919 21.5932ZM200.495 21.7533C201.532 22.5539 201.671 24.1911 200.792 25.2702C200.238 25.9512 199.433 26.1893 197.683 26.1905L196.317 26.1916V23.7123V21.2328L198.16 21.3033C199.685 21.3617 200.088 21.4393 200.495 21.7533ZM184.329 25.6259C184.914 27.3591 185.392 28.81 185.392 28.8504C185.392 28.8906 184.401 28.9236 183.19 28.9236C181.7 28.9236 180.987 28.8586 180.987 28.7223C180.987 28.5683 182.145 25.0637 183.021 22.5685C183.07 22.429 183.145 22.3507 183.187 22.3948C183.23 22.4388 183.744 23.8928 184.329 25.6259Z" fill="white"/>
<path fill-rule="evenodd" clip-rule="evenodd" d="M10.868 6.33871L0.442883 12.2266L0.422688 13.3709C0.411546 14.0002 0.410388 14.5151 0.420137 14.5151C0.429886 14.5151 4.89525 11.9983 10.3432 8.92226L20.2485 3.32931L20.2777 26.6126L20.3071 49.8959L20.8342 50.1979L21.3615 50.5L21.8783 50.204L22.395 49.9078L22.4243 26.6178L22.4536 3.32772L32.2606 8.86416L42.0676 14.4005L42.101 13.3047C42.1194 12.7021 42.0933 12.1718 42.0429 12.1261C41.9236 12.0181 21.6232 0.565227 21.4359 0.50021C21.3573 0.472978 16.6018 3.10033 10.868 6.33871ZM16.5346 7.67717C15.5771 8.22035 11.4773 10.5384 7.42395 12.8283L0.0541996 16.9916L0.0298303 23.0153L0.00545339 29.039H7.66071H15.316V36.9138V44.7886L9.25188 41.3663L3.18779 37.944L3.15692 34.7396L3.12616 31.5353H1.56308H0L0.0270408 35.5727L0.0541996 39.6101L6.37941 43.1817C9.85828 45.146 13.906 47.4364 15.3742 48.2713C16.8425 49.106 18.135 49.8234 18.2467 49.8653C18.439 49.9374 18.4495 49.3227 18.4495 38.0151V26.0888H10.788H3.12663L3.15715 22.3775L3.18779 18.6661L9.25083 15.2405L15.3139 11.8148L15.3439 17.732L15.374 23.6493H16.8828H18.3915L18.4212 15.1675C18.4376 10.5026 18.4115 6.6866 18.3632 6.68762C18.3149 6.68864 17.4921 7.13389 16.5346 7.67717ZM24.2525 28.3015C24.2525 40.1901 24.2916 49.9163 24.3395 49.9154C24.3875 49.9145 25.0794 49.5414 25.8773 49.0863L27.3281 48.2589L27.3574 30.0357L27.3868 11.8125L29.4171 12.9584L31.4473 14.1043L31.4768 30.0102L31.5062 45.9159L32.8989 45.1263C33.6649 44.6919 34.3315 44.2995 34.3804 44.2544C34.4292 44.2091 34.468 37.8056 34.4666 30.0245C34.4651 22.2432 34.5035 15.8799 34.5518 15.8837C34.6002 15.8876 35.7365 16.5154 37.077 17.279L39.5142 18.6672L39.5438 29.9804C39.5601 36.2026 39.5946 41.2935 39.6204 41.2935C39.6464 41.2935 40.3257 40.9233 41.1301 40.4709L42.5926 39.6483L42.5924 28.3023L42.5921 16.9561L33.5094 11.8236C28.5138 9.00066 24.3875 6.68989 24.3395 6.68842C24.2916 6.68694 24.2525 16.4128 24.2525 28.3015Z" fill="white"/>
</g>
<defs>
<clipPath id="clip0_116_276">
<rect width="246" height="50" fill="white" transform="translate(0 0.5)"/>
</clipPath>
</defs>
</svg>
