<svg width="96" height="97" viewBox="0 0 96 97" fill="none" xmlns="http://www.w3.org/2000/svg">
<path d="M34.5 20C38.6421 20 42 16.6421 42 12.5C42 8.35786 38.6421 5 34.5 5C30.3579 5 27 8.35786 27 12.5C27 16.6421 30.3579 20 34.5 20Z" fill="white"/>
<path d="M79.9957 46.6211C77.8269 43.1336 73.9207 41 69.7057 41H26.4639C22.1575 41 18.1814 43.2262 16.0449 46.8335L10.0713 56.9187L10.4999 63.5H85.4999V55.4722L79.9957 46.6211Z" fill="white"/>
<path d="M16.2188 69.4981H37.5L46.5 66.4347L81 69.5H84.1553C88.2116 69.5 91.5 66.1422 91.5 62C91.5 57.7355 88.0223 54.329 83.85 54.5065L16.2188 60.308V69.4981Z" fill="white"/>
<path d="M60.7353 30.6974L59.5467 31.2562L55.0762 21.7477L56.2647 21.1887C57.2104 20.7441 58.294 20.6934 59.2771 21.0477C60.2602 21.402 61.0622 22.1323 61.5069 23.078L62.6249 25.4551C62.8451 25.9234 62.9708 26.4305 62.995 26.9474C63.0192 27.4642 62.9413 27.9808 62.7658 28.4676C62.5904 28.9544 62.3207 29.4019 61.9723 29.7845C61.6239 30.1671 61.2036 30.4773 60.7353 30.6974Z" fill="white"/>
<path d="M32.2098 44.1093L33.3984 43.5504L28.9276 34.0419L27.739 34.6006C26.7933 35.0453 26.063 35.8474 25.7087 36.8305C25.3544 37.8136 25.4052 38.8972 25.8498 39.8429L26.9675 42.2201C27.4121 43.1658 28.2142 43.8961 29.1974 44.2504C30.1805 44.6047 31.2641 44.5539 32.2098 44.1093Z" fill="white"/>
<path d="M60.3907 43.625C61.2986 38.6566 60.7356 33.5312 58.771 28.8783L55.1305 20.2569C54.3372 18.378 53.1725 16.6787 51.7062 15.2611C50.24 13.8434 48.5025 12.7365 46.598 12.0068C44.6935 11.2772 42.6612 10.9398 40.6231 11.0148C38.5849 11.0899 36.583 11.5759 34.7373 12.4438C32.8916 13.3115 31.2402 14.5432 29.8822 16.065C28.5243 17.5867 27.4877 19.367 26.8347 21.2992C26.1817 23.2314 25.9258 25.2755 26.0822 27.3091C26.2387 29.3426 26.8043 31.3235 27.7452 33.1331L32.0626 41.4363C34.3926 45.9175 37.9806 49.6206 42.386 52.0908C44.4233 53.2333 46.7092 53.86 49.0443 53.9163C50.675 53.9557 52.2924 53.6149 53.7686 52.9209C55.2447 52.2268 56.539 51.1986 57.5489 49.9177C58.9952 48.0833 59.9708 45.9229 60.3907 43.625Z" fill="white"/>
<path d="M60.39 43.625C59.9714 45.923 58.9961 48.0835 57.5494 49.9175C56.5657 51.1652 55.3119 52.1736 53.8823 52.867C52.4527 53.5603 50.8845 53.9206 49.2957 53.9206C49.2113 53.9206 49.1288 53.9188 49.0444 53.9169C46.7094 53.8597 44.4237 53.2328 42.3863 52.0906C37.9806 49.621 34.3924 45.9181 32.0626 41.4369L27.8044 33.2487V33.2469L27.7444 33.1325C26.8037 31.3229 26.2382 29.342 26.0819 27.3085C25.9256 25.275 26.1816 23.2309 26.8347 21.2987C27.4878 19.3666 28.5244 17.5864 29.8824 16.0647C31.2404 14.5431 32.8918 13.3115 34.7375 12.4437C36.5832 11.576 38.5851 11.09 40.6232 11.015C42.6613 10.9399 44.6936 11.2773 46.5981 12.007C48.5026 12.7367 50.2401 13.8435 51.7063 15.2612C53.1725 16.6788 54.3373 18.378 55.1307 20.2569L55.1982 20.4162L58.7719 28.8781C60.736 33.5312 61.2984 38.6567 60.39 43.625Z" fill="white"/>
<path d="M55.1981 20.4162C53.4131 18.3312 51.6468 16.8781 49.8318 15.98C48.9316 15.5299 47.973 15.2074 46.9837 15.0219C46.0314 14.8502 45.0609 14.8017 44.0962 14.8775C42.9892 14.969 41.8953 15.1803 40.8337 15.5075C39.9614 15.7735 39.1051 16.089 38.2687 16.4525C37.8731 16.6212 37.47 16.805 37.0631 17C36.5437 17.25 36.0462 17.5062 35.5706 17.7687C34.5937 18.3035 33.6591 18.9122 32.775 19.5894C31.9586 20.2147 31.205 20.918 30.525 21.6894C30.0001 22.285 29.533 22.9291 29.13 23.6131C28.6165 24.4796 28.2181 25.4093 27.945 26.3787C27.3618 28.4375 27.3168 30.7194 27.8043 33.2469L27.7443 33.1325C26.6205 30.9806 26.0332 28.589 26.0325 26.1612C26.0325 26.015 26.0343 25.8687 26.04 25.7244C26.1018 23.6012 26.6076 21.5145 27.525 19.5987C27.9588 18.6924 28.4813 17.8313 29.085 17.0281C30.2429 15.4905 31.6853 14.1895 33.3337 13.1956C33.7886 12.921 34.2573 12.67 34.7381 12.4437C35.1693 12.2412 35.6043 12.0612 36.0431 11.9037C38.8957 10.8702 41.9936 10.7206 44.9325 11.4744C45.9573 11.7382 46.952 12.1077 47.9006 12.5769C51.1552 14.1849 53.7218 16.9112 55.1306 20.2569L55.1981 20.4162Z" fill="white"/>
<path d="M11.4729 69.4981H16.5L45 59L66 56L60 51.5H43.5L17.9387 54.0558C14.9887 54.3509 12.0806 54.9728 9.26794 55.9102C7.87958 56.373 6.67202 57.2608 5.8163 58.448C4.96057 59.6352 4.50006 61.0615 4.5 62.525C4.49998 63.4407 4.68032 64.3475 5.03073 65.1935C5.38114 66.0395 5.89476 66.8082 6.54226 67.4557C7.18976 68.1032 7.95846 68.6169 8.80447 68.9673C9.65047 69.3178 10.5572 69.4981 11.4729 69.4981Z" fill="white"/>
<path d="M87 69.5H9C6.51472 69.5 4.5 71.5147 4.5 74V80C4.5 82.4853 6.51472 84.5 9 84.5H87C89.4853 84.5 91.5 82.4853 91.5 80V74C91.5 71.5147 89.4853 69.5 87 69.5Z" fill="#EBEBE9"/>
<path d="M20.9541 84.1782L19.5698 84.2756L20.041 89.1296C20.2068 90.8358 21.787 92.1168 23.5709 91.9915C25.3548 91.8663 26.6665 90.3817 26.5009 88.6756C26.2407 85.9949 23.7573 83.9814 20.9541 84.1782Z" fill="white"/>
<path d="M20.1199 85.4907L19.5699 84.2742L14.8884 86.0947C13.2429 86.7346 12.4837 88.5241 13.1925 90.0918C13.9012 91.6595 15.8096 92.4117 17.4549 91.7718C20.0405 90.7664 21.2336 87.9543 20.1199 85.4907Z" fill="white"/>
<path d="M16.146 80.5269C15.5735 79.92 14.7936 79.5507 13.9613 79.4925C13.129 79.4342 12.3053 79.6912 11.6538 80.2124L11.6058 80.2516C11.2916 80.4978 11.0319 80.8065 10.8431 81.1582C10.6544 81.5099 10.5408 81.897 10.5094 82.295C10.478 82.6929 10.5297 83.093 10.661 83.47C10.7923 83.8469 11.0005 84.1925 11.2723 84.4848L11.4317 84.659C13.236 86.6326 16.3965 86.8539 18.4903 85.1533L19.5725 84.2744L16.146 80.5269Z" fill="white"/>
<path d="M21.0387 75.9607C19.498 75.0684 17.5079 75.5116 16.5934 76.9509C15.1563 79.2121 15.9537 82.1821 18.3747 83.584L19.57 84.2765L22.1721 80.1819C23.0866 78.7437 22.579 76.8528 21.0387 75.9607Z" fill="white"/>
<path d="M25.9688 79.4675C23.2223 78.833 20.4938 80.4132 19.875 82.9972L19.5696 84.2733H19.5739L20.9539 84.1773C22.3564 84.0799 23.7407 84.5396 24.8063 85.4566C26.4611 85.7065 28.0459 84.7364 28.4198 83.1753C28.8137 81.5317 27.7161 79.8714 25.9688 79.4675Z" fill="white"/>
<path d="M87 69.5H68.5875C56.292 77.3669 40.4895 81.9365 28.2456 84.5H87C88.1935 84.5 89.3381 84.0259 90.182 83.182C91.0259 82.3381 91.5 81.1935 91.5 80V74C91.5 72.8065 91.0259 71.6619 90.182 70.818C89.3381 69.9741 88.1935 69.5 87 69.5Z" fill="#E0E0DE"/>
<path d="M93 62C93.0112 59.9363 92.3064 57.9325 91.0058 56.3302C89.7052 54.7279 87.8892 53.6261 85.8673 53.2126L81.2681 45.8324C78.8379 41.9259 74.4067 39.5 69.7046 39.5H62.2704C62.3267 36.985 62.03 34.4746 61.3892 32.042C62.6883 31.4251 63.6902 30.3189 64.176 28.9653C64.6618 27.6117 64.5918 26.1209 63.9814 24.8187L62.8594 22.4399C62.3084 21.2732 61.3598 20.3409 60.1836 19.8104C59.0074 19.2798 57.6807 19.1857 56.4414 19.5449C55.1164 16.4555 52.881 13.8434 50.0332 12.0571C48.1153 10.8353 45.9608 10.0326 43.7109 9.70156C43.491 9.66406 43.2347 9.65937 43.0018 9.63349C42.6 8.4158 41.942 7.29832 41.0721 6.35627C40.2021 5.41422 39.1405 4.66947 37.9586 4.17215C36.7767 3.67482 35.5019 3.43646 34.2202 3.47312C32.9384 3.50978 31.6794 3.8206 30.5279 4.38466C29.3763 4.94872 28.359 5.75293 27.5443 6.74316C26.7296 7.73339 26.1366 8.88665 25.805 10.1253C25.4734 11.364 25.4111 12.6593 25.6221 13.9241C25.8332 15.1889 26.3127 16.3938 27.0285 17.4577C25.797 19.4364 25 21.654 24.69 23.9639C24.5889 24.693 24.5387 25.4282 24.54 26.1642C24.5348 28.7799 25.1569 31.3586 26.3541 33.6841C25.4108 34.3348 24.6966 35.2662 24.3128 36.3459C23.9291 37.4257 23.8954 38.5989 24.2166 39.6989C20.2753 40.3437 16.7676 42.6537 14.7615 46.067L9.96356 54.1338C9.57337 54.2514 9.18 54.3588 8.79338 54.4884C7.37791 54.9583 6.11187 55.7941 5.1236 56.9112C4.13533 58.0282 3.45998 59.3866 3.16601 60.8488C2.87205 62.311 2.96992 63.8249 3.4497 65.2371C3.92949 66.6492 4.77413 67.9094 5.898 68.8899C5.01614 69.4204 4.28607 70.1694 3.7784 71.0646C3.27072 71.9598 3.00262 72.9709 3 74V80C3.00022 80.8449 3.17854 81.6802 3.52332 82.4516C3.86811 83.2229 4.37161 83.9129 5.001 84.4766L6.999 82.2384C6.68453 81.9564 6.43303 81.6114 6.2609 81.2257C6.08877 80.84 5.99987 80.4223 6 80V74C6.00104 73.2047 6.31745 72.4422 6.87983 71.8798C7.44221 71.3174 8.20467 71.001 9 71H87C87.7953 71.001 88.5578 71.3174 89.1202 71.8798C89.6826 72.4422 89.999 73.2047 90 74V80C89.999 80.7953 89.6826 81.5578 89.1202 82.1202C88.5578 82.6825 87.7953 82.9989 87 83H33V86H87C88.5908 85.9984 90.116 85.3658 91.2409 84.2409C92.3658 83.116 92.9984 81.5908 93 80V74C92.9964 72.9387 92.7104 71.8974 92.1714 70.9831C91.6323 70.0689 90.8596 69.3145 89.9327 68.7976C90.8982 67.948 91.6712 66.9022 92.2002 65.7299C92.7291 64.5577 93.0018 63.2861 93 62ZM78.7222 47.4189L82.2988 53.1592L66.5336 54.5259L60.9 50.3C60.6405 50.1049 60.3246 49.9996 60 50H59.3203C60.5836 48.1677 61.4498 46.0914 61.8634 43.9046C61.9494 43.4519 62.0216 42.9809 62.0816 42.4998H69.7046C73.3785 42.5 76.8339 44.3838 78.7222 47.4189ZM60.1436 23.7147L61.2686 26.1011C61.5105 26.6202 61.5614 27.208 61.4121 27.761C61.2628 28.3139 60.9231 28.7963 60.4528 29.1232C60.3471 28.8506 60.2653 28.5607 60.1509 28.2969L57.6354 22.3437C58.1448 22.277 58.6623 22.3738 59.1131 22.6202C59.5639 22.8667 59.9248 23.2499 60.1436 23.7147ZM53.7452 20.8422L57.3926 29.4761C57.7017 30.1913 57.9692 30.9237 58.1938 31.6698C59.1324 34.6488 59.4822 37.7821 59.2236 40.8948C59.1695 41.72 59.0663 42.5413 58.9146 43.3542C58.5342 45.409 57.6653 47.3421 56.3813 48.9907C56.0904 49.352 55.7718 49.6902 55.4284 50.0021L42.0981 50.1333C39.0751 48.2555 36.5058 45.7311 34.575 42.7417C34.1489 42.0986 33.7577 41.4331 33.4031 40.748L29.079 32.4438C28.0768 30.5338 27.5509 28.41 27.546 26.2531L28.6322 26.6446L29.6488 23.8233L27.8899 23.1892C28.0957 22.263 28.3988 21.3611 28.794 20.4986L32.169 22.7486L33.8333 20.2526L30.3234 17.9129C31.3441 16.5586 32.6107 15.4088 34.0571 14.5235L36.1729 19.0235L38.8886 17.7461L36.7719 13.244C38.3147 12.714 39.9418 12.4725 41.5719 12.5315L40.5456 16.6366L43.4548 17.3634L44.5631 12.9296C45.5428 13.1792 46.4906 13.5405 47.3878 14.0064L46.7477 15.7842L49.569 16.8009L49.9577 15.7214C51.6092 17.1031 52.9076 18.8585 53.7452 20.8422ZM27.7511 36.3875L30.7442 42.1361C30.8886 42.4092 31.0254 42.6577 31.1576 42.8947C30.6062 43.0457 30.019 42.996 29.5008 42.7543C28.9827 42.5126 28.5672 42.0947 28.3286 41.5751L27.2051 39.2126C26.9886 38.7438 26.9249 38.2189 27.0228 37.712C27.1208 37.2051 27.3756 36.7418 27.7511 36.3875ZM34.5 6.49999C35.5665 6.50235 36.613 6.78921 37.5316 7.33097C38.4502 7.87273 39.2077 8.64977 39.7258 9.58193C35.6175 9.92529 31.7866 11.7944 28.9875 14.8212C28.5945 13.9114 28.4347 12.918 28.5225 11.9308C28.6103 10.9436 28.9429 9.99396 29.4902 9.16775C30.0376 8.34155 30.7823 7.6649 31.6571 7.19908C32.5318 6.73326 33.509 6.49298 34.5 6.49999ZM17.3438 47.5947C19.0284 44.726 22.0901 42.8671 25.4758 42.563L25.6129 42.8516C25.9135 43.4997 26.3394 44.082 26.8662 44.5647C27.393 45.0474 28.0102 45.421 28.6821 45.664C29.354 45.9069 30.0674 46.0144 30.7811 45.9802C31.4948 45.946 32.1946 45.7708 32.8402 45.4647L32.8498 45.4604C34.2132 47.3656 35.8173 49.0864 37.6221 50.5801L17.7891 52.5635C16.5367 52.6884 15.2914 52.8856 14.0537 53.1249L17.3438 47.5947ZM9.74269 57.3329C12.4499 56.4315 15.2488 55.8332 18.0879 55.5489L43.5 53H59.5005L62.2031 55.0272L44.7876 57.5131C44.683 57.5281 44.5804 57.5541 44.4814 57.5907L16.2319 67.9985H11.4727C10.1731 67.9985 8.91592 67.5359 7.92611 66.6937C6.9363 65.8515 6.2785 64.6846 6.0704 63.4017C5.86231 62.1188 6.11751 60.8038 6.79034 59.6919C7.46317 58.58 8.50971 57.7438 9.74269 57.3329ZM84.15 68H81.0658L46.6312 64.9458C46.4232 64.9252 46.2131 64.9508 46.0161 65.0208L37.2525 68H24.9062L45.3692 60.4604L64.7934 57.6875L83.85 56H84.1342C84.3452 55.9992 84.5561 56.0114 84.7656 56.0366C87.75 56.3647 90 58.9282 90 62C90 65.309 87.375 68 84.15 68Z" fill="#BA7894"/>
<path d="M33.9946 37.1036L35.8754 39.4415C37.5006 38.1372 39.4125 37.2379 41.4536 36.8178L40.8536 33.8793C38.344 34.3952 35.9931 35.5004 33.9946 37.1036Z" fill="#BA7894"/>
<path d="M48.8526 41.8687C47.786 42.3711 46.6269 42.6469 45.4483 42.6787L45.2021 42.6845L45.2725 45.6845L45.5171 45.6787C48.1207 45.6096 50.6246 44.6635 52.6234 42.9937L50.6987 40.6938C50.1365 41.1633 49.516 41.5582 48.8526 41.8687Z" fill="#BA7894"/>
<path d="M40.3183 32.8276L41.1678 29.9506C36.9287 28.7011 32.666 30.7124 31.0327 34.7379L33.813 35.8657C34.8707 33.2583 37.5425 32.0116 40.3183 32.8276Z" fill="#BA7894"/>
<path d="M44.1187 28.5635L46.8749 29.7448C48.013 27.089 50.6776 25.8292 53.3656 26.6729L54.268 23.8136C50.1269 22.502 45.8583 24.5015 44.1187 28.5635Z" fill="#BA7894"/>
<path d="M42.3076 32.1213L45.0236 30.8458L48.9304 39.1649L46.2144 40.4404L42.3076 32.1213Z" fill="#BA7894"/>
<path d="M49.3023 33.3301C50.928 32.0261 52.8401 31.1268 54.8813 30.7062L54.2778 27.7677C51.769 28.284 49.4188 29.3891 47.4209 30.9918L49.3023 33.3301Z" fill="#BA7894"/>
<path d="M29.323 80.1455C28.9876 79.6062 28.548 79.1393 28.03 78.7719C27.512 78.4045 26.9259 78.144 26.3061 78.0058C25.5701 77.8353 24.811 77.7876 24.0595 77.8646C24.0426 77.7678 24.0235 77.6713 23.9999 77.5747C23.8489 76.9645 23.5752 76.3916 23.1953 75.8908C22.8154 75.3901 22.3373 74.9721 21.7903 74.6624C19.5664 73.3745 16.6664 74.0398 15.3274 76.1461C14.9561 76.7291 14.6869 77.371 14.5313 78.0444C13.8592 77.931 13.1707 77.962 12.5115 78.1352C11.8522 78.3083 11.2374 78.6198 10.7078 79.0488L10.6605 79.0863C10.186 79.4647 9.79466 79.9369 9.511 80.4734C9.22735 81.0099 9.05748 81.5992 9.01204 82.2044C8.96748 82.8029 9.04691 83.404 9.24536 83.9703C9.44381 84.5367 9.75701 85.0559 10.1654 85.4956L10.3247 85.6704C10.7778 86.1645 11.3059 86.5841 11.8898 86.9135C11.597 87.5013 11.4393 88.1472 11.4282 88.8039C11.4171 89.4605 11.553 90.1113 11.8259 90.7087C12.3561 91.8205 13.2863 92.6914 14.4306 93.1475C15.5748 93.6035 16.8491 93.6112 17.9987 93.1689C18.6789 92.9061 19.3103 92.5312 19.8666 92.0598C20.321 92.5162 20.8611 92.8783 21.4558 93.1255C22.0505 93.3726 22.6881 93.4999 23.3322 93.5C23.4462 93.5 23.5608 93.496 23.676 93.488C24.3053 93.449 24.9202 93.2832 25.4838 93.0008C26.0475 92.7183 26.5483 92.3249 26.9562 91.8442C27.3433 91.3903 27.6347 90.8629 27.813 90.2936C27.9913 89.7243 28.0528 89.1249 27.9938 88.5312C27.9255 87.8344 27.7399 87.1541 27.4448 86.5192C28.0483 86.2334 28.5801 85.8162 29.0013 85.2981C29.4225 84.78 29.7224 84.1741 29.8789 83.525C30.0155 82.953 30.0366 82.3595 29.9412 81.7793C29.8457 81.199 29.6356 80.6436 29.323 80.1455ZM25.6313 80.9291C25.8648 80.9792 26.0861 81.0754 26.282 81.212C26.478 81.3486 26.6448 81.5228 26.7726 81.7246C26.8758 81.8865 26.9457 82.0673 26.9782 82.2565C27.0107 82.4457 27.0051 82.6395 26.9618 82.8266C26.7994 83.5053 26.1347 83.9754 25.3733 83.9953C24.2723 83.1838 22.9526 82.7224 21.5858 82.6709C22.2794 81.3024 23.9488 80.5398 25.6313 80.9291ZM17.8594 77.7553C18.3387 77.0015 19.4503 76.7743 20.2868 77.2586C20.4829 77.3668 20.6548 77.5138 20.7922 77.6907C20.9295 77.8676 21.0294 78.0706 21.0857 78.2874C21.135 78.4889 21.1389 78.6989 21.0972 78.9022C19.97 79.6236 19.1058 80.6896 18.6334 81.9417C18.0571 81.4823 17.6477 80.8461 17.4683 80.1313C17.3684 79.7294 17.3516 79.3115 17.4189 78.9029C17.4861 78.4944 17.636 78.1039 17.8594 77.7553ZM12.0038 82.427C12.0206 82.2296 12.078 82.0377 12.1724 81.8635C12.2667 81.6893 12.3961 81.5364 12.5522 81.4145L12.5997 81.377C12.8895 81.1477 13.242 81.0116 13.6108 80.9866C13.9795 80.9616 14.3472 81.0488 14.6653 81.2369C15.0641 82.4991 15.8468 83.6053 16.9043 84.4014C16.1926 84.763 15.3831 84.8849 14.5964 84.749C13.8097 84.6131 13.0881 84.2267 12.5389 83.6472L12.3794 83.4727C12.2482 83.3336 12.1471 83.1689 12.0825 82.989C12.0179 82.8091 11.9911 82.6178 12.0038 82.427ZM16.9112 90.3738C16.0142 90.7224 14.9376 90.3103 14.5594 89.4738C14.4275 89.1885 14.3941 88.8674 14.4643 88.561C14.5345 88.2546 14.7044 87.9802 14.9474 87.7807C15.042 87.7846 15.1365 87.7876 15.2312 87.7876C16.5525 87.7923 17.8455 87.4058 18.9475 86.6769C19.1015 87.3011 19.0534 87.9581 18.81 88.5532C18.6353 88.9706 18.3765 89.3477 18.0499 89.6609C17.7232 89.9741 17.3356 90.2168 16.9112 90.3738ZM24.6653 89.9073C24.5151 90.081 24.3314 90.2226 24.1252 90.3237C23.9191 90.4247 23.6946 90.4831 23.4653 90.4953C23.0981 90.523 22.731 90.4407 22.4109 90.2588C22.0907 90.077 21.8321 89.8038 21.6679 89.4742C22.1148 88.2599 22.1576 86.9337 21.7898 85.6931C23.4702 85.8944 24.8483 87.1788 25.0075 88.8208C25.0265 89.0156 25.0061 89.2122 24.9473 89.399C24.8885 89.5857 24.7926 89.7586 24.6653 89.9073Z" fill="#BA7894"/>
</svg>
