<svg width="11" height="14" viewBox="0 0 11 14" fill="none" xmlns="http://www.w3.org/2000/svg">
<path d="M7.86508 6.11097C7.27841 6.74532 6.57119 7.0625 5.74341 7.0625C4.91563 7.0625 4.20841 6.74532 3.62174 6.11097C3.03619 5.47542 2.74341 4.70926 2.74341 3.8125C2.74341 2.91574 3.03619 2.14958 3.62174 1.51403C4.20841 0.879676 4.91563 0.5625 5.74341 0.5625C6.57119 0.5625 7.27841 0.879676 7.86508 1.51403C8.45063 2.14958 8.74341 2.91574 8.74341 3.8125C8.74341 4.70926 8.45063 5.47542 7.86508 6.11097ZM7.45508 7.875H7.85341C8.7123 7.875 9.45063 8.20903 10.0684 8.87708C10.6851 9.54634 10.9934 10.3462 10.9934 11.2767V12.3438C10.9934 12.682 10.884 12.9697 10.6651 13.2068C10.4462 13.4439 10.1806 13.5625 9.86841 13.5625H1.61841C1.30619 13.5625 1.04063 13.4439 0.821742 13.2068C0.602853 12.9697 0.493408 12.682 0.493408 12.3438V11.2767C0.493408 10.3462 0.801742 9.54634 1.41841 8.87708C2.03619 8.20903 2.77452 7.875 3.63341 7.875H4.03174C4.57952 8.14583 5.15007 8.28125 5.74341 8.28125C6.33674 8.28125 6.9073 8.14583 7.45508 7.875Z" fill="#E3E3E3"/>
</svg>
