<svg width="23" height="26" viewBox="0 0 23 26" fill="none" xmlns="http://www.w3.org/2000/svg">
<g clip-path="url(#clip0_1_1099)">
<path fill-rule="evenodd" clip-rule="evenodd" d="M6.06037 2.98725L0.726591 5.99966L0.716259 6.58511C0.710558 6.90708 0.709966 7.17052 0.714954 7.17052C0.719942 7.17052 3.00455 5.88285 5.79187 4.30906L10.8597 1.44755L10.8746 13.3599L10.8897 25.2723L11.1594 25.4268L11.4291 25.5814L11.6935 25.43L11.9579 25.2784L11.9729 13.3626L11.9879 1.44674L17.0054 4.27934L22.023 7.11188L22.04 6.55124C22.0495 6.24293 22.0361 5.97162 22.0103 5.94824C21.9493 5.89298 11.563 0.033372 11.4672 0.00010734C11.427 -0.0138255 8.99394 1.3304 6.06037 2.98725ZM8.95956 3.67204C8.46968 3.94995 6.37211 5.13593 4.2983 6.3075L0.52773 8.43756L0.515262 11.5195L0.50279 14.6013H4.41943H8.33609V18.6303V22.6593L5.23352 20.9083L2.13096 19.1574L2.11517 17.5179L2.09943 15.8785H1.29972H0.5L0.513835 17.9442L0.52773 20.0098L3.76388 21.8372C5.54377 22.8421 7.6147 24.014 8.36587 24.4411C9.11709 24.8682 9.77837 25.2352 9.83552 25.2567C9.93391 25.2936 9.93928 24.9791 9.93928 19.1938V13.0919H6.01944H2.09967L2.11529 11.1931L2.13096 9.29428L5.23298 7.54165L8.33502 5.78897L8.35037 8.81637L8.36577 11.8438H9.13771H9.90961L9.9248 7.5043C9.93319 5.11761 9.91984 3.16524 9.89513 3.16576C9.87041 3.16628 9.44945 3.39408 8.95956 3.67204ZM12.9083 14.224C12.9083 20.3066 12.9283 25.2828 12.9528 25.2823C12.9773 25.2818 13.3313 25.0909 13.7395 24.8581L14.4818 24.4348L14.4968 15.1113L14.5119 5.78779L15.5506 6.37406L16.5893 6.96034L16.6044 15.0982L16.6195 23.236L17.332 22.8321C17.7239 22.6098 18.065 22.409 18.09 22.386C18.1149 22.3628 18.1348 19.0866 18.1341 15.1056C18.1333 11.1244 18.153 7.86879 18.1777 7.87073C18.2024 7.87273 18.7838 8.19392 19.4696 8.5846L20.7166 9.29485L20.7317 15.083C20.7401 18.2664 20.7577 20.8711 20.7709 20.8711C20.7842 20.8711 21.1318 20.6817 21.5433 20.4502L22.2916 20.0294L22.2915 14.2244L22.2913 8.4194L17.6443 5.79347C15.0885 4.34917 12.9773 3.16692 12.9528 3.16617C12.9283 3.16541 12.9083 8.14143 12.9083 14.224Z" fill="#F7E5C1"/>
</g>
<defs>
<clipPath id="clip0_1_1099">
<rect width="22" height="25.5814" fill="white" transform="translate(0.5)"/>
</clipPath>
</defs>
</svg>
