<svg width="17" height="17" viewBox="0 0 17 17" fill="none" xmlns="http://www.w3.org/2000/svg">
<g clip-path="url(#clip0_1_1118)">
<path d="M8.5 9.58142C8.00555 9.58142 7.5222 9.4348 7.11108 9.1601C6.69995 8.88539 6.37952 8.49495 6.1903 8.03813C6.00108 7.58132 5.95157 7.07865 6.04804 6.5937C6.1445 6.10874 6.3826 5.66329 6.73223 5.31366C7.08187 4.96402 7.52732 4.72592 8.01228 4.62946C8.49723 4.533 8.9999 4.5825 9.45671 4.77172C9.91353 4.96094 10.304 5.28137 10.5787 5.6925C10.8534 6.10362 11 6.58697 11 7.08142C10.9992 7.74423 10.7356 8.37968 10.2669 8.84836C9.79826 9.31703 9.16281 9.58067 8.5 9.58142ZM8.5 5.58142C8.20333 5.58142 7.91332 5.6694 7.66665 5.83422C7.41997 5.99904 7.22771 6.23331 7.11418 6.5074C7.00065 6.78149 6.97095 7.08309 7.02882 7.37406C7.0867 7.66503 7.22956 7.9323 7.43934 8.14208C7.64912 8.35186 7.91639 8.49472 8.20737 8.5526C8.49834 8.61048 8.79994 8.58077 9.07403 8.46724C9.34812 8.35371 9.58238 8.16145 9.74721 7.91478C9.91203 7.6681 10 7.37809 10 7.08142C9.99956 6.68373 9.84139 6.30245 9.56018 6.02124C9.27897 5.74003 8.89769 5.58186 8.5 5.58142Z" fill="#141414"/>
<path d="M8.50001 15.5814L4.28226 10.6071C4.25831 10.5785 4.10816 10.3813 4.10816 10.3813C3.38761 9.43226 2.99832 8.27302 3.00001 7.08142C3.00001 5.62273 3.57947 4.22378 4.61092 3.19233C5.64237 2.16088 7.04131 1.58142 8.50001 1.58142C9.9587 1.58142 11.3576 2.16088 12.3891 3.19233C13.4205 4.22378 14 5.62273 14 7.08142C14.0018 8.27253 13.6128 9.43133 12.8926 10.3801L12.8919 10.3813C12.8919 10.3813 12.7419 10.5785 12.7195 10.605L8.50001 15.5814ZM4.90626 9.77892C4.90676 9.77927 5.02296 9.93302 5.04956 9.96612L8.50001 14.0354L11.955 9.96037C11.977 9.93277 12.0942 9.77792 12.0944 9.77752C12.683 9.00206 13.0012 8.05498 13 7.08142C13 5.88795 12.5259 4.74335 11.682 3.89944C10.8381 3.05553 9.69348 2.58142 8.50001 2.58142C7.30653 2.58142 6.16194 3.05553 5.31802 3.89944C4.47411 4.74335 4.00001 5.88795 4.00001 7.08142C3.9989 8.05551 4.31725 9.00309 4.90626 9.77892Z" fill="#141414"/>
</g>
<defs>
<clipPath id="clip0_1_1118">
<rect width="16" height="16" fill="white" transform="translate(0.5 0.581421)"/>
</clipPath>
</defs>
</svg>
