<svg width="90" height="89" viewBox="0 0 90 89" fill="none" xmlns="http://www.w3.org/2000/svg">
<path d="M88.5298 71.2504C87.7496 63.1366 78.7873 56.3489 71.0384 60.4666L68.401 51.89L74.6607 27.0619C76.2597 20.6035 74.6607 12.4986 69.9288 2.96074C68.7006 0.154274 64.3604 0.590374 63.6158 3.53034L58.5042 20.0369L53.4193 3.62231C52.6925 0.652673 48.3048 0.29964 47.1003 3.10314C42.3774 12.638 40.7902 20.737 42.3833 27.1895L48.6133 51.9107L45.9433 60.5734C32.6823 54.3968 23.2602 72.891 31.1278 82.9717C36.7407 91.3971 49.266 89.0564 52.3929 79.7114C52.4967 79.9339 56.8814 65.326 57.0298 65.0056L59.7532 64.2254L64.2477 78.8095C65.194 81.5952 66.7604 84.0219 69.0863 85.8286C78.989 93.3076 90.7192 82.0699 88.5298 71.2504ZM46.6998 26.1067C45.4954 21.2146 46.596 14.9401 49.9632 7.46711L56.1932 27.5485L51.1736 43.7465L46.6998 26.1067ZM54.6505 61.054C53.9296 61.2617 53.36 61.8194 53.1375 62.5373L48.557 77.2965C46.7799 83.8677 38.9272 86.2825 34.7501 80.37C31.4452 75.7123 32.1543 68.4529 36.9514 65.0768C38.9034 63.7092 41.4221 63.454 43.6086 64.4004C45.3025 65.1065 47.0351 67.5302 48.824 65.5841C49.0435 65.3438 49.2067 65.056 49.3016 64.7445L67.0897 7.35437C70.4599 14.8393 71.5397 21.0989 70.3531 25.9821L62.0464 58.9447L54.6505 61.054ZM82.2642 80.2661V80.2602C78.461 85.8909 70.5696 84.1436 68.6591 77.8572L64.037 62.9675C65.2415 62.5255 66.0781 61.4486 66.3125 60.1996L67.6801 64.6348C68.0391 65.8096 69.2851 66.4711 70.4599 66.1092C71.5308 65.6701 72.2784 64.6615 73.4028 64.2817C82.377 60.9175 87.2423 74.0005 82.2642 80.2661Z" fill="#BA7894"/>
<path d="M30.1459 54.9901C32.9405 55.358 33.6376 51.1364 30.8579 50.5995C25.9391 49.5255 10.9071 50.1011 13.7847 62.3475L17.763 82.4941C17.9143 83.1586 17.3863 83.8143 16.7039 83.8113H11.6606C8.34089 83.8024 5.65309 81.1087 5.65309 77.789V13.2343C5.65902 8.7932 9.25759 5.1976 13.6987 5.19167H30.5019C31.7301 5.19167 32.7269 4.19487 32.7269 2.96667C32.7269 1.73847 31.7301 0.741669 30.5019 0.741669H13.6987C6.80119 0.750569 1.21199 6.3368 1.20605 13.2343V77.789C1.21199 83.568 5.89339 88.2494 11.6725 88.2583H16.7158C20.1809 88.291 22.8687 84.9624 22.1211 81.5833L18.1457 61.4367C16.2589 53.5988 26.577 54.6608 30.1459 54.9901Z" fill="#BA7894"/>
<path d="M30.5019 10.6474H12.2688C9.36441 10.6592 9.35551 15.0855 12.2688 15.0974H30.5019C33.4033 15.0855 33.4152 10.6592 30.5019 10.6474Z" fill="#BA7894"/>
<path d="M30.5019 20.556H12.2688C9.36441 20.5679 9.35551 24.9942 12.2688 25.006H30.5019C33.4033 24.9942 33.4152 20.5679 30.5019 20.556Z" fill="#BA7894"/>
<path d="M30.5019 30.4647H12.2688C9.36441 30.4766 9.35551 34.9028 12.2688 34.9147H30.5019C33.4033 34.9028 33.4152 30.4766 30.5019 30.4647Z" fill="#BA7894"/>
<path d="M12.2688 40.3704C9.36441 40.3823 9.35551 44.8085 12.2688 44.8204H30.5019C33.4063 44.8085 33.4152 40.3823 30.5019 40.3704H12.2688Z" fill="#BA7894"/>
<path d="M58.5043 49.6205C55.2499 49.6353 55.2499 54.5837 58.5043 54.5985C61.7587 54.5837 61.7587 49.6353 58.5043 49.6205Z" fill="#BA7894"/>
</svg>
