<svg width="26" height="27" viewBox="0 0 26 27" fill="none" xmlns="http://www.w3.org/2000/svg">
<g clip-path="url(#clip0_1_1124)">
<path d="M23.5624 22.995L17.4264 16.8589C18.9008 15.0887 19.6361 12.8183 19.4792 10.5199C19.3223 8.22143 18.2853 6.07196 16.5839 4.51862C14.8826 2.96528 12.6479 2.12765 10.3447 2.17999C8.04151 2.23232 5.84716 3.1706 4.21814 4.79962C2.58912 6.42864 1.65084 8.62299 1.5985 10.9262C1.54617 13.2294 2.38379 15.4641 3.93714 17.1654C5.49048 18.8668 7.63994 19.9037 9.93838 20.0607C12.2368 20.2176 14.5073 19.4823 16.2774 18.0078L22.4135 24.1439L23.5624 22.995ZM3.24995 11.1439C3.24995 9.69765 3.67882 8.28386 4.48233 7.08132C5.28583 5.87879 6.42789 4.94153 7.76408 4.38806C9.10026 3.8346 10.5706 3.68978 11.989 3.97194C13.4075 4.25409 14.7105 4.95054 15.7332 5.97321C16.7558 6.99588 17.4523 8.29885 17.7344 9.71733C18.0166 11.1358 17.8718 12.6061 17.3183 13.9423C16.7649 15.2785 15.8276 16.4205 14.6251 17.2241C13.4225 18.0276 12.0087 18.4564 10.5624 18.4564C8.62371 18.4543 6.765 17.6832 5.3941 16.3123C4.02321 14.9414 3.2521 13.0827 3.24995 11.1439Z" fill="white"/>
</g>
<defs>
<clipPath id="clip0_1_1124">
<rect width="26" height="26" fill="white" transform="translate(0 0.581421)"/>
</clipPath>
</defs>
</svg>
