<svg width="17" height="17" viewBox="0 0 17 17" fill="none" xmlns="http://www.w3.org/2000/svg">
<g clip-path="url(#clip0_1_1111)">
<path d="M15.0001 14.3744L11.2241 10.5983C12.1314 9.509 12.5839 8.1118 12.4873 6.69738C12.3908 5.28295 11.7526 3.96021 10.7057 3.0043C9.65867 2.0484 8.28347 1.53294 6.86612 1.56514C5.44877 1.59735 4.0984 2.17475 3.09593 3.17723C2.09345 4.1797 1.51605 5.53007 1.48385 6.94742C1.45164 8.36477 1.9671 9.73997 2.923 10.787C3.87891 11.8339 5.20165 12.4721 6.61608 12.5686C8.0305 12.6652 9.4277 12.2127 10.517 11.3054L14.2931 15.0814L15.0001 14.3744ZM2.50012 7.08142C2.50012 6.1914 2.76404 5.32137 3.25851 4.58135C3.75297 3.84133 4.45578 3.26455 5.27804 2.92396C6.10031 2.58336 7.00511 2.49425 7.87802 2.66788C8.75094 2.84152 9.55276 3.2701 10.1821 3.89944C10.8114 4.52877 11.24 5.3306 11.4137 6.20351C11.5873 7.07643 11.4982 7.98123 11.1576 8.80349C10.817 9.62576 10.2402 10.3286 9.50018 10.823C8.76016 11.3175 7.89013 11.5814 7.00012 11.5814C5.80705 11.5801 4.66323 11.1056 3.8196 10.2619C2.97597 9.41831 2.50144 8.27449 2.50012 7.08142Z" fill="#141414"/>
</g>
<defs>
<clipPath id="clip0_1_1111">
<rect width="16" height="16" fill="white" transform="translate(0.5 0.581421)"/>
</clipPath>
</defs>
</svg>
